HIERARCHY
ROOT Hips
{
	OFFSET 0.000000 0.000000 0.000000
	CHANNELS 6 Xposition Yposition Zposition Zrotation Yrotation Xrotation 
	JOINT LHipJoint
	{
		OFFSET 0.000000 0.000000 0.000000
		CHANNELS 3 Zrotation Yrotation Xrotation
		JOINT LeftUpLeg
		{
			OFFSET 1.363060 -1.794630 0.839290
			CHANNELS 3 Zrotation Yrotation Xrotation
			JOINT LeftLeg
			{
				OFFSET 2.448110 -6.726130 0.000000
				CHANNELS 3 Zrotation Yrotation Xrotation
				JOINT LeftFoot
				{
					OFFSET 2.562200 -7.039590 0.000000
					CHANNELS 3 Zrotation Yrotation Xrotation
					JOINT LeftToeBase
					{
						OFFSET 0.157640 -0.433110 2.322550
						CHANNELS 3 Zrotation Yrotation Xrotation
						End Site
						{
							OFFSET 0.000000 0.000000 0.000000
						}
					}
				}
			}
		}
	}
	JOINT RHipJoint
	{
		OFFSET 0.000000 0.000000 0.000000
		CHANNELS 3 Zrotation Yrotation Xrotation
		JOINT RightUpLeg
		{
			OFFSET -1.305520 -1.794630 0.839290
			CHANNELS 3 Zrotation Yrotation Xrotation
			JOINT RightLeg
			{
				OFFSET -2.542530 -6.985550 0.000000
				CHANNELS 3 Zrotation Yrotation Xrotation
				JOINT RightFoot
				{
					OFFSET -2.568260 -7.056230 0.000000
					CHANNELS 3 Zrotation Yrotation Xrotation
					JOINT RightToeBase
					{
						OFFSET -0.164730 -0.452590 2.363150
						CHANNELS 3 Zrotation Yrotation Xrotation
						End Site
						{
							OFFSET 0.000000 0.000000 0.000000
						}
					}
				}
			}
		}
	}
}
MOTION
Frames: 22
Frame Time: 0.008333
2.197598 15.645498 -1.183654 84.279737 -76.108859 -33.972991 -7.177540 0.726922 9.611977 1.788768 -32.122182 -131.701923 -9.723860 0.143517 10.749166 -1.749058 -1.189421 14.173721 1.768800 -0.000000 -47.567100 8.304796 4.655291 -3.989699 8.030562 -7.101280 -85.108780 2.267045 -6.852863 58.393833 -2.059433 -2.601326 -23.149088 1.026100 -0.000000 -48.694700
2.207481 15.626464 -1.178455 84.133638 -75.986796 -33.781880 -7.151172 0.745603 9.455112 0.663848 -32.575875 -130.230312 -9.647070 0.142958 10.640602 -1.701351 -0.820459 14.888468 1.930500 -0.000000 -46.924200 8.283101 4.668589 -3.945528 7.780147 -7.037488 -85.323417 2.198737 -6.868150 58.718562 -2.114774 -2.806628 -23.314508 1.074100 0.000000 -48.455300
2.215983 15.611525 -1.172028 84.084115 -75.925571 -33.693529 -7.110497 0.718864 9.329512 -0.186453 -32.707480 -128.663616 -9.484315 0.070556 10.339294 -1.611821 -0.329335 15.531614 2.147000 -0.000000 -46.203500 8.260305 4.681053 -3.909422 7.543517 -6.912291 -85.456068 2.133368 -6.866675 58.968916 -2.173319 -3.033390 -23.450534 1.123399 -0.000000 -48.203001
2.222788 15.600557 -1.164156 84.132275 -75.928421 -33.713391 -7.062066 0.657213 9.222851 -0.790044 -32.567238 -127.051623 -9.251215 -0.039704 9.961423 -1.494507 0.218593 16.057209 2.388100 0.000000 -45.549600 8.237733 4.686984 -3.874520 7.335513 -6.727747 -85.515405 2.072807 -6.849865 59.145364 -2.232050 -3.268562 -23.550869 1.171200 0.000000 -47.967000
2.227395 15.593174 -1.154451 84.232763 -75.994502 -33.800673 -7.014669 0.573874 9.125669 -1.194085 -32.227007 -125.440561 -8.961850 -0.149179 9.643349 -1.360383 0.774658 16.433317 2.629600 -0.000000 -45.050699 8.215259 4.677417 -3.834120 7.179407 -6.493565 -85.517106 2.020273 -6.821134 59.251001 -2.287669 -3.496026 -23.613038 1.214300 -0.000000 -47.778500
2.229790 15.589101 -1.143194 84.401910 -76.115329 -33.976564 -6.975172 0.486747 9.024294 -1.489508 -31.762261 -123.843910 -8.634786 -0.225865 9.498515 -1.217080 1.308275 16.643414 2.854400 0.000000 -44.749400 8.195212 4.651017 -3.781100 7.071264 -6.217395 -85.469206 1.975394 -6.781513 59.291068 -2.338842 -3.708814 -23.638257 1.251299 0.000000 -47.628299
2.229790 15.587977 -1.130371 84.616321 -76.281799 -34.221779 -6.949753 0.410771 8.909219 -1.769016 -31.247887 -122.273345 -8.287102 -0.242970 9.631038 -1.069445 1.802613 16.680088 3.052300 0.000000 -44.619500 8.178154 4.604025 -3.710642 7.016054 -5.912326 -85.381932 1.939184 -6.733562 59.271802 -2.384015 -3.898248 -23.629585 1.280800 0.000000 -47.525499
2.227074 15.589229 -1.116026 84.835750 -76.481822 -34.495268 -6.941780 0.356633 8.777930 -2.105532 -30.743239 -120.737857 -7.932018 -0.186940 10.102774 -0.916912 2.268711 16.553214 3.227800 -0.000000 -44.595800 8.164560 4.533363 -3.618919 7.019411 -5.594908 -85.270736 1.913039 -6.680747 59.200851 -2.421644 -4.055324 -23.591413 1.301700 0.000000 -47.477600
2.221878 15.592607 -1.100449 85.060993 -76.705588 -34.804343 -6.951768 0.332269 8.619208 -2.588491 -30.285670 -119.222402 -7.580804 -0.049498 10.956077 -0.758698 2.714173 16.270037 3.382200 0.000000 -44.580400 8.155064 4.440614 -3.504963 7.071591 -5.274524 -85.132455 1.895713 -6.623637 59.084318 -2.452219 -4.181627 -23.528812 1.314700 -0.000000 -47.479600
2.214206 15.597798 -1.083820 85.266790 -76.943607 -35.124566 -6.977649 0.339103 8.429678 -3.258353 -29.887482 -117.720289 -7.236534 0.165856 12.191870 -0.589035 3.169223 15.845006 3.528600 0.000000 -44.460901 8.149558 4.326726 -3.368660 7.167811 -4.960911 -84.970597 1.886787 -6.563711 58.928856 -2.476412 -4.278501 -23.448726 1.320800 0.000000 -47.523600
2.204269 15.604580 -1.066292 85.433563 -77.188626 -35.437607 -7.015211 0.373771 8.206434 -4.125543 -29.537792 -116.223799 -6.896967 0.448954 13.784961 -0.401082 3.665355 15.288778 3.678799 0.000000 -44.126101 8.147621 4.194310 -3.211494 7.299146 -4.660217 -84.783650 1.885022 -6.501506 58.739695 -2.495983 -4.352807 -23.357437 1.321900 0.000000 -47.602900
2.192381 15.612877 -1.048048 85.548337 -77.433897 -35.731366 -7.058322 0.429207 7.946992 -5.173481 -29.209643 -114.720511 -6.556113 0.784799 15.692249 -0.188356 4.228816 14.605113 3.840100 -0.000000 -43.482100 8.148899 4.047534 -3.036427 7.453795 -4.376622 -84.566634 1.888532 -6.436931 58.521289 -2.513030 -4.414022 -23.259163 1.320001 0.000000 -47.716700
2.178482 15.622434 -1.029070 85.574748 -77.674916 -35.959397 -7.101061 0.494542 7.658917 -6.336263 -28.872553 -113.220546 -6.206886 1.151845 17.845169 0.054621 4.883120 13.800695 4.017599 0.000000 -42.484300 8.152368 3.888858 -2.844418 7.623767 -4.109386 -84.327436 1.896296 -6.370270 58.276123 -2.530707 -4.473395 -23.161488 1.317600 0.000000 -47.819500
2.163238 15.633464 -1.009612 85.521847 -77.905203 -36.133680 -7.136408 0.559638 7.339958 -7.568994 -28.497097 -111.715613 -5.845875 1.533608 20.192659 0.326423 5.617492 12.867078 4.197101 -0.000000 -41.123300 8.158373 3.726066 -2.640916 7.789615 -3.861994 -84.055448 1.905271 -6.300500 58.006565 -2.551054 -4.543066 -23.062556 1.316300 -0.000000 -47.942500
2.146559 15.645827 -0.989508 85.350191 -78.122083 -36.199198 -7.160762 0.613057 7.003702 -8.783578 -28.068718 -110.229682 -5.471168 1.909581 22.662583 0.623420 6.421656 11.817770 4.367600 0.000000 -39.486100 8.166266 3.561655 -2.426121 7.944076 -3.630143 -83.765085 1.914603 -6.227809 57.712717 -2.577330 -4.634629 -22.967291 1.318200 -0.000000 -48.031800
2.128875 15.659660 -0.969006 85.083751 -78.320736 -36.177846 -7.171072 0.647582 6.651337 -9.939722 -27.579800 -108.762167 -5.086032 2.268958 25.213968 0.934640 7.253422 10.655544 4.502800 0.000000 -37.662000 8.177258 3.403365 -2.204666 8.068971 -3.415310 -83.450344 1.921602 -6.151241 57.395988 -2.610796 -4.756806 -22.871745 1.323501 -0.000000 -48.121100
2.110161 15.674866 -0.947926 84.698169 -78.500134 -36.030655 -7.168267 0.657345 6.297478 -10.975509 -27.041001 -107.335883 -4.694824 2.599074 27.786775 1.248849 8.081782 9.412737 4.589400 0.000000 -35.807000 8.191468 3.253493 -1.976496 8.159463 -3.212672 -83.126772 1.925821 -6.071073 57.055533 -2.653380 -4.916172 -22.777278 1.333200 -0.000001 -48.169000
2.090682 15.691516 -0.926396 84.224831 -78.659085 -35.786412 -7.154246 0.641012 5.945580 -11.877755 -26.462819 -105.948344 -4.304912 2.895734 30.345810 1.551467 8.860954 8.112500 4.609900 0.000000 -34.021900 8.209955 3.117326 -1.745167 8.205275 -3.021654 -82.792926 1.925787 -5.986860 56.692434 -2.705050 -5.114722 -22.680245 1.346500 0.000000 -48.188600
2.070471 15.709550 -0.904405 83.681642 -78.798386 -35.455997 -7.133061 0.600001 5.603968 -12.636306 -25.861645 -104.601305 -3.924458 3.155001 32.845099 1.830100 9.558396 6.790327 4.559700 0.000001 -32.391000 8.233100 2.996999 -1.512380 8.203933 -2.839058 -82.454703 1.921156 -5.898671 56.307100 -2.765508 -5.351480 -22.578453 1.362699 -0.000000 -48.185900
2.049453 15.728752 -0.881907 83.084813 -78.919228 -35.046515 -7.109455 0.538931 5.282545 -13.251093 -25.257331 -103.294757 -3.562174 3.373987 35.232802 2.075622 10.153529 5.483558 4.444500 0.000000 -30.951600 8.260980 2.892934 -1.279196 8.157451 -2.663260 -82.121806 1.912627 -5.807239 55.900175 -2.833624 -5.620809 -22.471349 1.380500 0.000000 -48.141900
2.027601 15.748979 -0.858912 82.461149 -79.023884 -34.580999 -7.087901 0.464178 4.987280 -13.739032 -24.663713 -102.020323 -3.226562 3.552482 37.461467 2.282369 10.634262 4.221947 4.274700 0.000000 -29.700700 8.293151 2.804785 -1.047511 8.069803 -2.493097 -81.798858 1.900997 -5.713177 55.472749 -2.907441 -5.914397 -22.357437 1.398300 0.000000 -48.061000
2.005098 15.770044 -0.835364 81.835408 -79.115677 -34.084380 -7.072081 0.382379 4.721781 -14.122065 -24.088130 -100.768138 -2.924716 3.691724 39.487745 2.449085 11.000223 3.027163 4.064900 -0.000000 -28.600800 8.328568 2.731016 -0.819830 7.948463 -2.327994 -81.487488 1.887277 -5.617274 55.026822 -2.984579 -6.222650 -22.234807 1.414200 -0.000000 -47.963000
